<mxfile host="app.diagrams.net" agent="Mozilla/5.0 (X11; Linux x86_64) AppleWebKit/537.36 (KHTML, like Gecko) Chrome/135.0.0.0 Safari/537.36" version="26.2.14">
  <diagram name="PÃ¡gina-1" id="l8dhkVXJz_CZN9Du08GZ">
    <mxGraphModel dx="1730" dy="915" grid="1" gridSize="10" guides="1" tooltips="1" connect="1" arrows="1" fold="1" page="0" pageScale="1" pageWidth="827" pageHeight="1169" math="0" shadow="0">
      <root>
        <mxCell id="0" />
        <mxCell id="1" parent="0" />
        <mxCell id="StapUB6m1ytVqgZR6nxF-17" value="Usuario" style="swimlane;fontStyle=1;align=center;verticalAlign=top;childLayout=stackLayout;horizontal=1;startSize=26;horizontalStack=0;resizeParent=1;resizeParentMax=0;resizeLast=0;collapsible=1;marginBottom=0;whiteSpace=wrap;html=1;fillColor=#f5f5f5;strokeColor=#666666;fontColor=#333333;" parent="1" vertex="1">
          <mxGeometry x="280" y="-60" width="250" height="190" as="geometry" />
        </mxCell>
        <mxCell id="StapUB6m1ytVqgZR6nxF-18" value="&lt;div&gt;- tipoUsuario: int&lt;/div&gt;- nome: String&lt;br&gt;- cpf: String&lt;br&gt;- telefone: String&lt;br&gt;- email: String&lt;br&gt;- senha: String" style="text;align=left;verticalAlign=top;spacingLeft=4;spacingRight=4;overflow=hidden;rotatable=0;points=[[0,0.5],[1,0.5]];portConstraint=eastwest;whiteSpace=wrap;html=1;" parent="StapUB6m1ytVqgZR6nxF-17" vertex="1">
          <mxGeometry y="26" width="250" height="96" as="geometry" />
        </mxCell>
        <mxCell id="StapUB6m1ytVqgZR6nxF-19" value="" style="line;strokeWidth=1;align=left;verticalAlign=middle;spacingTop=-1;spacingLeft=3;spacingRight=3;rotatable=0;labelPosition=right;points=[];portConstraint=eastwest;" parent="StapUB6m1ytVqgZR6nxF-17" vertex="1">
          <mxGeometry y="122" width="250" height="8" as="geometry" />
        </mxCell>
        <mxCell id="StapUB6m1ytVqgZR6nxF-20" value="- cadastro(tipoUsuario): boolean&lt;br&gt;- login(tipoUsuario, email, senha): boolean&lt;br&gt;- login(tipoUsuario, telefone, senha): boolean" style="text;align=left;verticalAlign=top;spacingLeft=4;spacingRight=4;overflow=hidden;rotatable=0;points=[[0,0.5],[1,0.5]];portConstraint=eastwest;whiteSpace=wrap;html=1;" parent="StapUB6m1ytVqgZR6nxF-17" vertex="1">
          <mxGeometry y="130" width="250" height="60" as="geometry" />
        </mxCell>
        <mxCell id="StapUB6m1ytVqgZR6nxF-21" value="UsuarioComum" style="swimlane;fontStyle=1;align=center;verticalAlign=top;childLayout=stackLayout;horizontal=1;startSize=26;horizontalStack=0;resizeParent=1;resizeParentMax=0;resizeLast=0;collapsible=1;marginBottom=0;whiteSpace=wrap;html=1;fillColor=#f5f5f5;strokeColor=#666666;fontColor=#333333;" parent="1" vertex="1">
          <mxGeometry x="100" y="260" width="230" height="110" as="geometry" />
        </mxCell>
        <mxCell id="StapUB6m1ytVqgZR6nxF-22" value="&amp;nbsp;" style="text;align=left;verticalAlign=top;spacingLeft=4;spacingRight=4;overflow=hidden;rotatable=0;points=[[0,0.5],[1,0.5]];portConstraint=eastwest;whiteSpace=wrap;html=1;" parent="StapUB6m1ytVqgZR6nxF-21" vertex="1">
          <mxGeometry y="26" width="230" height="26" as="geometry" />
        </mxCell>
        <mxCell id="StapUB6m1ytVqgZR6nxF-23" value="" style="line;strokeWidth=1;align=left;verticalAlign=middle;spacingTop=-1;spacingLeft=3;spacingRight=3;rotatable=0;labelPosition=right;points=[];portConstraint=eastwest;" parent="StapUB6m1ytVqgZR6nxF-21" vertex="1">
          <mxGeometry y="52" width="230" height="8" as="geometry" />
        </mxCell>
        <mxCell id="StapUB6m1ytVqgZR6nxF-24" value="- rastrearEncomenda(cod): Encomenda" style="text;align=left;verticalAlign=top;spacingLeft=4;spacingRight=4;overflow=hidden;rotatable=0;points=[[0,0.5],[1,0.5]];portConstraint=eastwest;whiteSpace=wrap;html=1;" parent="StapUB6m1ytVqgZR6nxF-21" vertex="1">
          <mxGeometry y="60" width="230" height="50" as="geometry" />
        </mxCell>
        <mxCell id="StapUB6m1ytVqgZR6nxF-25" value="UsuarioProprietario" style="swimlane;fontStyle=1;align=center;verticalAlign=top;childLayout=stackLayout;horizontal=1;startSize=26;horizontalStack=0;resizeParent=1;resizeParentMax=0;resizeLast=0;collapsible=1;marginBottom=0;whiteSpace=wrap;html=1;fillColor=#f5f5f5;strokeColor=#666666;fontColor=#333333;" parent="1" vertex="1">
          <mxGeometry x="439" y="260" width="330" height="100" as="geometry" />
        </mxCell>
        <mxCell id="StapUB6m1ytVqgZR6nxF-26" value="&amp;nbsp;" style="text;align=left;verticalAlign=top;spacingLeft=4;spacingRight=4;overflow=hidden;rotatable=0;points=[[0,0.5],[1,0.5]];portConstraint=eastwest;whiteSpace=wrap;html=1;" parent="StapUB6m1ytVqgZR6nxF-25" vertex="1">
          <mxGeometry y="26" width="330" height="26" as="geometry" />
        </mxCell>
        <mxCell id="StapUB6m1ytVqgZR6nxF-27" value="" style="line;strokeWidth=1;align=left;verticalAlign=middle;spacingTop=-1;spacingLeft=3;spacingRight=3;rotatable=0;labelPosition=right;points=[];portConstraint=eastwest;" parent="StapUB6m1ytVqgZR6nxF-25" vertex="1">
          <mxGeometry y="52" width="330" height="8" as="geometry" />
        </mxCell>
        <mxCell id="StapUB6m1ytVqgZR6nxF-28" value="+ cadastrarEmbarcacao(): Embarcacao" style="text;align=left;verticalAlign=top;spacingLeft=4;spacingRight=4;overflow=hidden;rotatable=0;points=[[0,0.5],[1,0.5]];portConstraint=eastwest;whiteSpace=wrap;html=1;" parent="StapUB6m1ytVqgZR6nxF-25" vertex="1">
          <mxGeometry y="60" width="330" height="40" as="geometry" />
        </mxCell>
        <mxCell id="StapUB6m1ytVqgZR6nxF-29" value="" style="endArrow=block;endSize=16;endFill=0;html=1;rounded=0;" parent="1" target="StapUB6m1ytVqgZR6nxF-17" edge="1">
          <mxGeometry width="160" relative="1" as="geometry">
            <mxPoint x="404" y="240" as="sourcePoint" />
            <mxPoint x="480" y="380" as="targetPoint" />
          </mxGeometry>
        </mxCell>
        <mxCell id="StapUB6m1ytVqgZR6nxF-30" value="" style="endArrow=none;html=1;rounded=0;" parent="1" edge="1">
          <mxGeometry width="50" height="50" relative="1" as="geometry">
            <mxPoint x="210" y="240" as="sourcePoint" />
            <mxPoint x="610" y="240" as="targetPoint" />
          </mxGeometry>
        </mxCell>
        <mxCell id="StapUB6m1ytVqgZR6nxF-31" value="" style="endArrow=none;html=1;rounded=0;" parent="1" edge="1">
          <mxGeometry width="50" height="50" relative="1" as="geometry">
            <mxPoint x="210" y="260" as="sourcePoint" />
            <mxPoint x="210" y="240" as="targetPoint" />
          </mxGeometry>
        </mxCell>
        <mxCell id="StapUB6m1ytVqgZR6nxF-32" value="" style="endArrow=none;html=1;rounded=0;entryX=0.519;entryY=-0.004;entryDx=0;entryDy=0;entryPerimeter=0;" parent="1" target="StapUB6m1ytVqgZR6nxF-25" edge="1">
          <mxGeometry width="50" height="50" relative="1" as="geometry">
            <mxPoint x="610" y="240" as="sourcePoint" />
            <mxPoint x="299" y="250" as="targetPoint" />
            <Array as="points" />
          </mxGeometry>
        </mxCell>
        <mxCell id="StapUB6m1ytVqgZR6nxF-41" value="Embarcacao" style="swimlane;fontStyle=1;align=center;verticalAlign=top;childLayout=stackLayout;horizontal=1;startSize=26;horizontalStack=0;resizeParent=1;resizeParentMax=0;resizeLast=0;collapsible=1;marginBottom=0;whiteSpace=wrap;html=1;fillColor=#f5f5f5;strokeColor=#666666;fontColor=#333333;" parent="1" vertex="1">
          <mxGeometry x="434" y="474" width="340" height="196" as="geometry" />
        </mxCell>
        <mxCell id="StapUB6m1ytVqgZR6nxF-42" value="- nomeEmbarcao: String&lt;br&gt;- proprietario:&amp;nbsp;UsuarioProprietario&lt;br&gt;- cnpj: String&lt;br&gt;- telefone1: String&lt;div&gt;- localizacaoAtual: Localizacao&lt;/div&gt;&lt;div&gt;- statusDisponibilidade: String&lt;/div&gt;" style="text;align=left;verticalAlign=top;spacingLeft=4;spacingRight=4;overflow=hidden;rotatable=0;points=[[0,0.5],[1,0.5]];portConstraint=eastwest;whiteSpace=wrap;html=1;" parent="StapUB6m1ytVqgZR6nxF-41" vertex="1">
          <mxGeometry y="26" width="340" height="90" as="geometry" />
        </mxCell>
        <mxCell id="StapUB6m1ytVqgZR6nxF-43" value="" style="line;strokeWidth=1;align=left;verticalAlign=middle;spacingTop=-1;spacingLeft=3;spacingRight=3;rotatable=0;labelPosition=right;points=[];portConstraint=eastwest;" parent="StapUB6m1ytVqgZR6nxF-41" vertex="1">
          <mxGeometry y="116" width="340" height="8" as="geometry" />
        </mxCell>
        <mxCell id="StapUB6m1ytVqgZR6nxF-44" value="+ getEmbarcacao: Embarcacao&lt;br&gt;- setEmbarcacao: Embarcacao&lt;div&gt;- criarSetorEncomendas(Embarcacao): SetorEncomendas&lt;/div&gt;" style="text;align=left;verticalAlign=top;spacingLeft=4;spacingRight=4;overflow=hidden;rotatable=0;points=[[0,0.5],[1,0.5]];portConstraint=eastwest;whiteSpace=wrap;html=1;" parent="StapUB6m1ytVqgZR6nxF-41" vertex="1">
          <mxGeometry y="124" width="340" height="72" as="geometry" />
        </mxCell>
        <mxCell id="AtBwWNmR3gx3fUVsytQ0-5" value="&lt;span style=&quot;text-align: left;&quot;&gt;SetorEncomenda&lt;/span&gt;" style="swimlane;fontStyle=1;align=center;verticalAlign=top;childLayout=stackLayout;horizontal=1;startSize=26;horizontalStack=0;resizeParent=1;resizeParentMax=0;resizeLast=0;collapsible=1;marginBottom=0;whiteSpace=wrap;html=1;fillColor=#f5f5f5;strokeColor=#666666;fontColor=#333333;" parent="1" vertex="1">
          <mxGeometry x="518.12" y="768" width="171.75" height="160" as="geometry" />
        </mxCell>
        <mxCell id="AtBwWNmR3gx3fUVsytQ0-6" value="- nomeSetor: String&lt;br&gt;- embacacao: Embarcacao&lt;div&gt;- senha: String&lt;br&gt;- telefone1: String&lt;/div&gt;" style="text;align=left;verticalAlign=top;spacingLeft=4;spacingRight=4;overflow=hidden;rotatable=0;points=[[0,0.5],[1,0.5]];portConstraint=eastwest;whiteSpace=wrap;html=1;" parent="AtBwWNmR3gx3fUVsytQ0-5" vertex="1">
          <mxGeometry y="26" width="171.75" height="64" as="geometry" />
        </mxCell>
        <mxCell id="AtBwWNmR3gx3fUVsytQ0-7" value="" style="line;strokeWidth=1;align=left;verticalAlign=middle;spacingTop=-1;spacingLeft=3;spacingRight=3;rotatable=0;labelPosition=right;points=[];portConstraint=eastwest;" parent="AtBwWNmR3gx3fUVsytQ0-5" vertex="1">
          <mxGeometry y="90" width="171.75" height="8" as="geometry" />
        </mxCell>
        <mxCell id="AtBwWNmR3gx3fUVsytQ0-8" value="&lt;div&gt;+ cadastrarEncomenda()&lt;/div&gt;&lt;div&gt;+ atualizarStatus()&lt;/div&gt;&lt;div&gt;+ enviarCodigoParaUsuario()&lt;/div&gt;" style="text;align=left;verticalAlign=top;spacingLeft=4;spacingRight=4;overflow=hidden;rotatable=0;points=[[0,0.5],[1,0.5]];portConstraint=eastwest;whiteSpace=wrap;html=1;" parent="AtBwWNmR3gx3fUVsytQ0-5" vertex="1">
          <mxGeometry y="98" width="171.75" height="62" as="geometry" />
        </mxCell>
        <mxCell id="AtBwWNmR3gx3fUVsytQ0-10" value="" style="endArrow=diamondThin;endFill=1;endSize=24;html=1;rounded=0;" parent="1" source="AtBwWNmR3gx3fUVsytQ0-5" target="StapUB6m1ytVqgZR6nxF-41" edge="1">
          <mxGeometry width="160" relative="1" as="geometry">
            <mxPoint x="339" y="710" as="sourcePoint" />
            <mxPoint x="499" y="710" as="targetPoint" />
          </mxGeometry>
        </mxCell>
        <mxCell id="AtBwWNmR3gx3fUVsytQ0-11" value="1" style="text;html=1;align=center;verticalAlign=middle;resizable=0;points=[];autosize=1;" parent="1" vertex="1">
          <mxGeometry x="610" y="670" width="30" height="30" as="geometry" />
        </mxCell>
        <mxCell id="AtBwWNmR3gx3fUVsytQ0-12" value="1" style="text;html=1;align=center;verticalAlign=middle;resizable=0;points=[];autosize=1;" parent="1" vertex="1">
          <mxGeometry x="610" y="738" width="30" height="30" as="geometry" />
        </mxCell>
        <mxCell id="AtBwWNmR3gx3fUVsytQ0-14" value="&lt;span style=&quot;text-align: left;&quot;&gt;Localizacao&lt;/span&gt;" style="swimlane;fontStyle=1;align=center;verticalAlign=top;childLayout=stackLayout;horizontal=1;startSize=26;horizontalStack=0;resizeParent=1;resizeParentMax=0;resizeLast=0;collapsible=1;marginBottom=0;whiteSpace=wrap;html=1;fillColor=#f5f5f5;strokeColor=#666666;fontColor=#333333;" parent="1" vertex="1">
          <mxGeometry x="888" y="522" width="130" height="110" as="geometry" />
        </mxCell>
        <mxCell id="AtBwWNmR3gx3fUVsytQ0-15" value="- latitude: double&lt;div&gt;- longitude:&amp;nbsp;&lt;span style=&quot;background-color: transparent; color: light-dark(rgb(0, 0, 0), rgb(255, 255, 255));&quot;&gt;double&lt;/span&gt;&lt;/div&gt;" style="text;align=left;verticalAlign=top;spacingLeft=4;spacingRight=4;overflow=hidden;rotatable=0;points=[[0,0.5],[1,0.5]];portConstraint=eastwest;whiteSpace=wrap;html=1;" parent="AtBwWNmR3gx3fUVsytQ0-14" vertex="1">
          <mxGeometry y="26" width="130" height="44" as="geometry" />
        </mxCell>
        <mxCell id="AtBwWNmR3gx3fUVsytQ0-16" value="" style="line;strokeWidth=1;align=left;verticalAlign=middle;spacingTop=-1;spacingLeft=3;spacingRight=3;rotatable=0;labelPosition=right;points=[];portConstraint=eastwest;" parent="AtBwWNmR3gx3fUVsytQ0-14" vertex="1">
          <mxGeometry y="70" width="130" height="8" as="geometry" />
        </mxCell>
        <mxCell id="AtBwWNmR3gx3fUVsytQ0-17" value="+ getLocalizacao()" style="text;align=left;verticalAlign=top;spacingLeft=4;spacingRight=4;overflow=hidden;rotatable=0;points=[[0,0.5],[1,0.5]];portConstraint=eastwest;whiteSpace=wrap;html=1;" parent="AtBwWNmR3gx3fUVsytQ0-14" vertex="1">
          <mxGeometry y="78" width="130" height="32" as="geometry" />
        </mxCell>
        <mxCell id="AtBwWNmR3gx3fUVsytQ0-18" value="&lt;span style=&quot;text-align: left;&quot;&gt;Encomenda&lt;/span&gt;" style="swimlane;fontStyle=1;align=center;verticalAlign=top;childLayout=stackLayout;horizontal=1;startSize=26;horizontalStack=0;resizeParent=1;resizeParentMax=0;resizeLast=0;collapsible=1;marginBottom=0;whiteSpace=wrap;html=1;fillColor=#f5f5f5;strokeColor=#666666;fontColor=#333333;" parent="1" vertex="1">
          <mxGeometry x="100" y="758" width="190" height="180" as="geometry" />
        </mxCell>
        <mxCell id="AtBwWNmR3gx3fUVsytQ0-19" value="- codigoEncomenda: String&lt;br&gt;- embacacao: Embarcacao&lt;div&gt;- remetente: UsuarioComum&lt;br&gt;&lt;div&gt;- destinatario: UsuarioComum&lt;/div&gt;&lt;div&gt;&lt;div&gt;- status: String&lt;br&gt;- destino: String&lt;/div&gt;&lt;/div&gt;&lt;/div&gt;" style="text;align=left;verticalAlign=top;spacingLeft=4;spacingRight=4;overflow=hidden;rotatable=0;points=[[0,0.5],[1,0.5]];portConstraint=eastwest;whiteSpace=wrap;html=1;" parent="AtBwWNmR3gx3fUVsytQ0-18" vertex="1">
          <mxGeometry y="26" width="190" height="94" as="geometry" />
        </mxCell>
        <mxCell id="AtBwWNmR3gx3fUVsytQ0-20" value="" style="line;strokeWidth=1;align=left;verticalAlign=middle;spacingTop=-1;spacingLeft=3;spacingRight=3;rotatable=0;labelPosition=right;points=[];portConstraint=eastwest;" parent="AtBwWNmR3gx3fUVsytQ0-18" vertex="1">
          <mxGeometry y="120" width="190" height="8" as="geometry" />
        </mxCell>
        <mxCell id="AtBwWNmR3gx3fUVsytQ0-21" value="- getEncomenda()" style="text;align=left;verticalAlign=top;spacingLeft=4;spacingRight=4;overflow=hidden;rotatable=0;points=[[0,0.5],[1,0.5]];portConstraint=eastwest;whiteSpace=wrap;html=1;" parent="AtBwWNmR3gx3fUVsytQ0-18" vertex="1">
          <mxGeometry y="128" width="190" height="52" as="geometry" />
        </mxCell>
        <mxCell id="AtBwWNmR3gx3fUVsytQ0-22" value="&lt;span style=&quot;text-align: left;&quot;&gt;RastreamentoEmbarcaÃ§Ã£o&lt;/span&gt;" style="swimlane;fontStyle=1;align=center;verticalAlign=top;childLayout=stackLayout;horizontal=1;startSize=26;horizontalStack=0;resizeParent=1;resizeParentMax=0;resizeLast=0;collapsible=1;marginBottom=0;whiteSpace=wrap;html=1;fillColor=#f5f5f5;strokeColor=#666666;fontColor=#333333;" parent="1" vertex="1">
          <mxGeometry x="40" y="502" width="264" height="140" as="geometry" />
        </mxCell>
        <mxCell id="AtBwWNmR3gx3fUVsytQ0-23" value="- encomenda: Encomenda&lt;div&gt;- localizacao: Localizacao&lt;/div&gt;&lt;div&gt;- dataHora: LocalDateTime&lt;/div&gt;" style="text;align=left;verticalAlign=top;spacingLeft=4;spacingRight=4;overflow=hidden;rotatable=0;points=[[0,0.5],[1,0.5]];portConstraint=eastwest;whiteSpace=wrap;html=1;" parent="AtBwWNmR3gx3fUVsytQ0-22" vertex="1">
          <mxGeometry y="26" width="264" height="54" as="geometry" />
        </mxCell>
        <mxCell id="AtBwWNmR3gx3fUVsytQ0-24" value="" style="line;strokeWidth=1;align=left;verticalAlign=middle;spacingTop=-1;spacingLeft=3;spacingRight=3;rotatable=0;labelPosition=right;points=[];portConstraint=eastwest;" parent="AtBwWNmR3gx3fUVsytQ0-22" vertex="1">
          <mxGeometry y="80" width="264" height="8" as="geometry" />
        </mxCell>
        <mxCell id="AtBwWNmR3gx3fUVsytQ0-25" value="+ getEmbarcacao: Embarcacao&lt;br&gt;- setEmbarcacao: Embarcacao&lt;div&gt;- criarSetorEncomendas(): SetorEncomendas&lt;/div&gt;" style="text;align=left;verticalAlign=top;spacingLeft=4;spacingRight=4;overflow=hidden;rotatable=0;points=[[0,0.5],[1,0.5]];portConstraint=eastwest;whiteSpace=wrap;html=1;" parent="AtBwWNmR3gx3fUVsytQ0-22" vertex="1">
          <mxGeometry y="88" width="264" height="52" as="geometry" />
        </mxCell>
        <mxCell id="AtBwWNmR3gx3fUVsytQ0-26" value="" style="endArrow=diamondThin;endFill=0;endSize=24;html=1;rounded=0;" parent="1" source="AtBwWNmR3gx3fUVsytQ0-5" target="AtBwWNmR3gx3fUVsytQ0-18" edge="1">
          <mxGeometry width="160" relative="1" as="geometry">
            <mxPoint x="310" y="1038" as="sourcePoint" />
            <mxPoint x="470" y="1038" as="targetPoint" />
          </mxGeometry>
        </mxCell>
        <mxCell id="AtBwWNmR3gx3fUVsytQ0-27" value="1" style="text;html=1;align=center;verticalAlign=middle;resizable=0;points=[];autosize=1;" parent="1" vertex="1">
          <mxGeometry x="488.12" y="812" width="30" height="30" as="geometry" />
        </mxCell>
        <mxCell id="AtBwWNmR3gx3fUVsytQ0-28" value="*" style="text;html=1;align=center;verticalAlign=middle;resizable=0;points=[];autosize=1;" parent="1" vertex="1">
          <mxGeometry x="290" y="812" width="30" height="30" as="geometry" />
        </mxCell>
        <mxCell id="AtBwWNmR3gx3fUVsytQ0-2" value="" style="endArrow=diamondThin;endFill=0;endSize=24;html=1;rounded=0;" parent="1" source="StapUB6m1ytVqgZR6nxF-41" target="StapUB6m1ytVqgZR6nxF-25" edge="1">
          <mxGeometry width="160" relative="1" as="geometry">
            <mxPoint x="420" y="410" as="sourcePoint" />
            <mxPoint x="580" y="410" as="targetPoint" />
          </mxGeometry>
        </mxCell>
        <mxCell id="AtBwWNmR3gx3fUVsytQ0-3" value="1" style="text;html=1;align=center;verticalAlign=middle;resizable=0;points=[];autosize=1;" parent="1" vertex="1">
          <mxGeometry x="611" y="360" width="30" height="30" as="geometry" />
        </mxCell>
        <mxCell id="AtBwWNmR3gx3fUVsytQ0-4" value="*" style="text;html=1;align=center;verticalAlign=middle;resizable=0;points=[];autosize=1;" parent="1" vertex="1">
          <mxGeometry x="611" y="443" width="30" height="30" as="geometry" />
        </mxCell>
        <mxCell id="AtBwWNmR3gx3fUVsytQ0-39" value="" style="rounded=0;orthogonalLoop=1;jettySize=auto;html=1;endArrow=open;endFill=0;" parent="1" source="AtBwWNmR3gx3fUVsytQ0-15" target="StapUB6m1ytVqgZR6nxF-41" edge="1">
          <mxGeometry relative="1" as="geometry" />
        </mxCell>
        <mxCell id="2" value="" style="rounded=0;orthogonalLoop=1;jettySize=auto;html=1;endArrow=open;endFill=0;" parent="1" source="AtBwWNmR3gx3fUVsytQ0-22" target="StapUB6m1ytVqgZR6nxF-41" edge="1">
          <mxGeometry relative="1" as="geometry">
            <mxPoint x="364" y="660" as="sourcePoint" />
            <mxPoint x="270" y="661" as="targetPoint" />
          </mxGeometry>
        </mxCell>
        <mxCell id="3" value="1" style="text;html=1;align=center;verticalAlign=middle;resizable=0;points=[];autosize=1;" parent="1" vertex="1">
          <mxGeometry x="304" y="540" width="30" height="30" as="geometry" />
        </mxCell>
        <mxCell id="4" value="1" style="text;html=1;align=center;verticalAlign=middle;resizable=0;points=[];autosize=1;" parent="1" vertex="1">
          <mxGeometry x="404" y="540" width="30" height="30" as="geometry" />
        </mxCell>
        <mxCell id="5" value="1" style="text;html=1;align=center;verticalAlign=middle;resizable=0;points=[];autosize=1;strokeColor=none;fillColor=none;" parent="1" vertex="1">
          <mxGeometry x="415" y="130" width="30" height="30" as="geometry" />
        </mxCell>
        <mxCell id="6" value="1" style="text;html=1;align=center;verticalAlign=middle;resizable=0;points=[];autosize=1;strokeColor=none;fillColor=none;" parent="1" vertex="1">
          <mxGeometry x="611" y="230" width="30" height="30" as="geometry" />
        </mxCell>
        <mxCell id="7" value="1" style="text;html=1;align=center;verticalAlign=middle;resizable=0;points=[];autosize=1;strokeColor=none;fillColor=none;" parent="1" vertex="1">
          <mxGeometry x="180" y="230" width="30" height="30" as="geometry" />
        </mxCell>
        <mxCell id="8" value="1" style="text;html=1;align=center;verticalAlign=middle;resizable=0;points=[];autosize=1;strokeColor=none;fillColor=none;" parent="1" vertex="1">
          <mxGeometry x="774" y="540" width="30" height="30" as="geometry" />
        </mxCell>
        <mxCell id="9" value="*" style="text;html=1;align=center;verticalAlign=middle;resizable=0;points=[];autosize=1;strokeColor=none;fillColor=none;" parent="1" vertex="1">
          <mxGeometry x="860" y="540" width="30" height="30" as="geometry" />
        </mxCell>
        <mxCell id="10" value="" style="rounded=0;orthogonalLoop=1;jettySize=auto;html=1;endArrow=open;endFill=0;" parent="1" source="StapUB6m1ytVqgZR6nxF-21" target="AtBwWNmR3gx3fUVsytQ0-18" edge="1">
          <mxGeometry relative="1" as="geometry">
            <mxPoint x="-80" y="230" as="sourcePoint" />
            <mxPoint x="40" y="642" as="targetPoint" />
            <Array as="points">
              <mxPoint x="-90" y="315" />
              <mxPoint x="-90" y="848" />
            </Array>
          </mxGeometry>
        </mxCell>
        <mxCell id="11" value="1" style="text;html=1;align=center;verticalAlign=middle;resizable=0;points=[];autosize=1;strokeColor=none;fillColor=none;" parent="1" vertex="1">
          <mxGeometry x="65" y="280" width="30" height="30" as="geometry" />
        </mxCell>
        <mxCell id="12" value="*" style="text;html=1;align=center;verticalAlign=middle;resizable=0;points=[];autosize=1;strokeColor=none;fillColor=none;" parent="1" vertex="1">
          <mxGeometry x="65" y="812" width="30" height="30" as="geometry" />
        </mxCell>
      </root>
    </mxGraphModel>
  </diagram>
</mxfile>
